inDegrees=no
num_controls=7
num_derivatives=13
num_iterations=116
num_multipliers=7
num_parameters=0
num_slacks=7
num_states=26
objective=4.934475
objective_accelerations=0.543119
objective_balance=0.018177
objective_effort=0.151208
objective_height=4.195519
objective_ligament=0.026452
solver_duration=1308.690114
status=Solve_Succeeded
success=true
DataType=double
version=3
OpenSimVersion=4.4-2022-07-23-0e9fedc
endheader
time	/jointset/ground_pelvis/pelvis_tilt/value	/jointset/ground_pelvis/pelvis_tx/value	/jointset/ground_pelvis/pelvis_ty/value	/jointset/hip_l/hip_flexion_l/value	/jointset/hip_l/hip_adduction_l/value	/jointset/hip_l/hip_rotation_l/value	/jointset/back/lumbar_extension/value	/jointset/patellofemoral_l/patellar_flexion_l/value	/jointset/knee_l/knee_flexion_l/value	/jointset/knee_l/knee_adduction_l/value	/jointset/knee_l/knee_rotation_l/value	/jointset/ankle_l/ankle_angle_l/value	/jointset/subtalar_l/subtalar_angle_l/value	/jointset/ground_pelvis/pelvis_tilt/speed	/jointset/ground_pelvis/pelvis_tx/speed	/jointset/ground_pelvis/pelvis_ty/speed	/jointset/hip_l/hip_flexion_l/speed	/jointset/hip_l/hip_adduction_l/speed	/jointset/hip_l/hip_rotation_l/speed	/jointset/back/lumbar_extension/speed	/jointset/patellofemoral_l/patellar_flexion_l/speed	/jointset/knee_l/knee_flexion_l/speed	/jointset/knee_l/knee_adduction_l/speed	/jointset/knee_l/knee_rotation_l/speed	/jointset/ankle_l/ankle_angle_l/speed	/jointset/subtalar_l/subtalar_angle_l/speed	/forceset/tau_hip_flexion_l	/forceset/tau_hip_adduction_l	/forceset/tau_hip_rotation_l	/forceset/tau_knee_flexion_l	/forceset/tau_ankle_angle_l	/forceset/tau_subtalar_angle_l	/forceset/tau_lumbar_extension	lambda_cid13_p0	lambda_cid13_p1	lambda_cid13_p2	lambda_cid13_p3	lambda_cid13_p4	lambda_cid13_p5	lambda_cid14_p0	/jointset/ground_pelvis/pelvis_tilt/accel	/jointset/ground_pelvis/pelvis_tx/accel	/jointset/ground_pelvis/pelvis_ty/accel	/jointset/hip_l/hip_flexion_l/accel	/jointset/hip_l/hip_adduction_l/accel	/jointset/hip_l/hip_rotation_l/accel	/jointset/back/lumbar_extension/accel	/jointset/patellofemoral_l/patellar_flexion_l/accel	/jointset/knee_l/knee_flexion_l/accel	/jointset/knee_l/knee_adduction_l/accel	/jointset/knee_l/knee_rotation_l/accel	/jointset/ankle_l/ankle_angle_l/accel	/jointset/subtalar_l/subtalar_angle_l/accel	gamma_cid13_p0	gamma_cid13_p1	gamma_cid13_p2	gamma_cid13_p3	gamma_cid13_p4	gamma_cid13_p5	gamma_cid14_p0
1	-0.3764216691730742	0.02533534630726324	0.6617671485866827	1.433491714568131	-0.3659611091921605	0.1354906301831229	-0.436323646708442	1.333936616659824	1.333936616659856	-0.028569530154217	-0.1745141454257586	0.4348852511535914	0.2173586281601778	-0.1328726223196584	0.003065616858038655	0.0270408057335387	0.03357393323287832	-0.0007582896145786041	-0.04679331544869365	0.000408059215362415	-0.1433663708535588	-0.1433663708535541	-0.01022464777349609	0.0002664550900342403	-0.05660364252074116	-0.03277078338247881	-0.1981305978576045	0.04206826416421449	-0.0005465444045387763	-0.2651128236719816	-0.05006686536416111	0.01385899297601546	0.1837907857678515	-45.81919253308249	4.813640173676771	-4.258123057766817	2.999819927163577	-524.4671321189185	-70.55812895519901	-0.02465519261036232	1.378148014865859	0.2721919226260172	1.563575940487502	-5.525720176661459	-0.1776135562802541	-1.54878869166239	-0.02909225957454531	-4.858409569103741	-4.858409569104146	-0.5408933438360669	-0.01680999220336118	-1.127664850278003	-0.9011126621487258	-5.194044981915986e-09	-7.295328320846456e-08	8.250180021284577e-08	-1.699504975217461e-09	-4.542993392459359e-09	-5.053212167008501e-08	-1.677550935099367e-08
1.01	-0.3776821510340066	0.02537951279505781	0.6621153391348341	1.433552813828167	-0.3659769593065816	0.1349450993067098	-0.4363205489673639	1.332261024807546	1.332261024807189	-0.02869739369050443	-0.1745113081250651	0.4342629937616549	0.2169870288618318	-0.1192070269130313	0.00576322070435047	0.04257150594759809	-0.02130072822645968	-0.002411862654600145	-0.06229683783387457	0.0001635995899440946	-0.1916878678175255	-0.1916878678175203	-0.01533969520026037	0.0002853138492936413	-0.06784765558723985	-0.04154188030861498	-0.1982052161826574	0.04208342317578567	-0.0005918397386170244	-0.2638383160304358	-0.05047100880630696	0.01388928801158936	0.1836622897501392	-45.88963669352824	4.766135095693269	-4.197227046116164	3.030733381112043	-523.7190219950004	-70.37804434224103	-0.02466800938330598	1.363273349020594	0.2678744824592155	1.543945802012171	-5.460336653928368	-0.1592617697256779	-1.548750004711436	-0.02930732583114024	-4.809395524535653	-4.809395524536398	-0.4955705135646826	0.00889540494941295	-1.122747333129733	-0.8640272670238005	-5.961200765915822e-09	-8.787966024229814e-08	1.028093223024042e-07	-5.633217965544586e-09	-7.804387671714812e-09	-4.783826333193729e-08	-2.228218494318851e-08
1.02	-0.378805475331849	0.02545052129467945	0.6626180624331565	1.433066766967676	-0.3660093516699935	0.1342450100078622	-0.4363213326406432	1.330104142832731	1.330104142832753	-0.02887615971528764	-0.1745087499177983	0.4335283006794091	0.2165279347823861	-0.1054411096881749	0.008434019223451017	0.05794735576734585	-0.07585529062032099	-0.004066739369030225	-0.07770499992969833	-0.0003682405067509014	-0.2396243953611948	-0.2396243953611911	-0.02040514548579597	0.0002106364069056788	-0.07909078058548145	-0.05026973960186122	-0.1982798345175144	0.04209858218617561	-0.0006371350720798458	-0.2625638083891613	-0.0508751522474283	0.01391958304580361	0.1835337937223297	-45.96597467299959	4.719505696955938	-4.13629231452708	3.062245847222736	-523.0984313816555	-70.18974246240407	-0.02467912728976529	1.398212378511302	0.26683085718408	1.532605861625181	-5.46170036356612	-0.1778742911621858	-1.529716633791008	-0.08656835377199706	-4.781415685044158	-4.781415685044943	-0.5309739155904707	-0.03551723253306383	-1.12748723662604	-0.8924651355707204	-1.274200741938062e-08	-1.082572315277312e-07	1.180334371799133e-07	3.361169628468991e-09	-2.116740369019582e-08	-6.116346084691418e-08	-2.519105914616796e-08
1.03	-0.3797909028910388	0.02554835938854086	0.6632739895406147	1.432036071675316	-0.3660582718142141	0.1333913088476703	-0.4363270077181574	1.327469000883185	1.327469000883722	-0.02910555905245018	-0.1745071285053383	0.4326812690059832	0.2159818996858588	-0.0916550121976062	0.01115461070904604	0.07323417554662462	-0.1302999339149248	-0.005716262470993753	-0.09303281241405811	-0.0006272957674153623	-0.2874231042283844	-0.2874231042283848	-0.02547977669410706	0.0001181349979652205	-0.0903077801855052	-0.05892089469317819	-0.1992789259735414	0.04236451796783518	-0.0006915020337632003	-0.2611626275289197	-0.0516305788599056	0.01392872979753092	0.1843383873793308	-46.1955020913508	4.702927911649942	-4.073345898491562	2.959612316513638	-523.338287968249	-69.97995261452533	-0.02469731776278494	1.367217065005634	0.2778275212750941	1.526129501013478	-5.438271887570341	-0.1583527649103922	-1.53397742871549	0.02534983295688845	-4.781959307118466	-4.781959307118985	-0.4964872212223194	0.004575724753150509	-1.117649068829131	-0.8489782745443641	-1.958417785722775e-08	-1.28690427244303e-07	1.332056805552585e-07	1.24874766162004e-08	-3.463349748152613e-08	-7.465211811549448e-08	-2.807342517170642e-08
